<?xml version="1.0" encoding="utf-8"?>
<!-- Generator: Adobe Illustrator 20.0.0, SVG Export Plug-In . SVG Version: 6.00 Build 0)  -->
<svg version="1.1" id="Capa_1" xmlns="http://www.w3.org/2000/svg" xmlns:xlink="http://www.w3.org/1999/xlink" x="0px" y="0px"
	 viewBox="0 0 512 512" style="enable-background:new 0 0 512 512;" xml:space="preserve">
<style type="text/css">
	.st0{fill:#279D59;}
</style>
<g>
	<path class="st0" d="M280.4,197.2c3.1,0,6,0.5,8.9,1.3l53-65c3.4-4.2,9.7-4.9,13.8-1.4c4,3.3,4.5,9.3,1.2,13.3l-52.4,64.3
		c3.6,4.9,5.7,11,5.7,17.5c0,12.2-7.3,22.7-17.8,27.4h205.6c7.5,0,13.7-6.1,13.7-13.7V68.1c0-7.5-6.1-13.7-13.7-13.7H237.1
		c-7.5,0-13.7,6.1-13.7,13.7v113.5l12.3,15.6L280.4,197.2L280.4,197.2z"/>
	<circle class="st0" cx="110" cy="66.6" r="56"/>
	<g>
		<path class="st0" d="M167.4,487.7c0,7.5-6.1,13.7-13.7,13.7h-22.9c-7.5,0-13.7-6.1-13.7-13.7V373.2c0-4-3.3-7.3-7.3-7.3l0,0
			c-4,0-7.3,3.3-7.3,7.3v114c0,7.8-6.4,14.2-14.2,14.2H65.8c-7.5,0-13.7-6.1-13.7-13.7L52,211.2c0-3.7-3-6.8-6.8-6.8l0,0
			c-3.7,0-6.8,3-6.8,6.8v106.3c0,7.5-6.1,13.7-13.7,13.7H13.7c-7.5,0-13.7-6.1-13.7-13.7V171.8c0-17.3,14-31.3,31.3-31.3h124.4
			c13.3,0,26,6.1,34.3,16.6l33.4,42.2l7,8.9c0,0,31.7,0,49.9,0.1c7.5,0,13.7,6.1,13.7,13.7v10.9c0,7.5-6.1,13.7-13.7,13.7h-59.1
			c-5.8,0-11.4-2.7-15-7.3l-24.9-32c-1.3-1.6-3.3-2.6-5.4-2.6h-1.7c-3.7,0-6.8,3-6.8,6.8L167.4,487.7z"/>
	</g>
</g>
</svg>
