<?xml version="1.0" encoding="utf-8"?>
<!-- Generator: Adobe Illustrator 20.0.0, SVG Export Plug-In . SVG Version: 6.00 Build 0)  -->
<svg version="1.1" id="Capa_1" xmlns="http://www.w3.org/2000/svg" xmlns:xlink="http://www.w3.org/1999/xlink" x="0px" y="0px"
	 viewBox="0 0 512 512" style="enable-background:new 0 0 512 512;" xml:space="preserve">
<style type="text/css">
	.st0{fill:#279D59;}
</style>
<g>
	<path class="st0" d="M69.6,471.4c0,0-0.5,11.4,10.7,11.4c13.9,0,129.1-0.2,129.1-0.2l0.2-105.8c0,0-1.8-17.4,15.1-17.4h53.5
		c20,0,18.8,17.4,18.8,17.4l-0.2,105.4c0,0,109.2,0,126.3,0c14.2,0,13.5-14.2,13.5-14.2v-195l-178-158.4l-189,158.4
		C69.6,273.1,69.6,471.4,69.6,471.4z"/>
	<path class="st0" d="M0,258.4c0,0,16,29.6,51,0L260.2,81.4l196.1,175.8c40.5,29.2,55.7,0,55.7,0L260.2,29.2L0,258.4z"/>
	<polygon class="st0" points="451.6,81 401.1,81 401.3,142.2 451.6,184.8 	"/>
</g>
</svg>
