<?xml version="1.0" encoding="utf-8"?>
<!-- Generator: Adobe Illustrator 20.0.0, SVG Export Plug-In . SVG Version: 6.00 Build 0)  -->
<svg version="1.1" id="Capa_1" xmlns="http://www.w3.org/2000/svg" xmlns:xlink="http://www.w3.org/1999/xlink" x="0px" y="0px"
	 viewBox="0 0 512 512" style="enable-background:new 0 0 512 512;" xml:space="preserve">
<style type="text/css">
	.st0{fill:#279D59;}
</style>
<g>
	<path class="st0" d="M213.3,28.4L213.3,28.4c117.8,0,213.3,77.3,213.3,172.6s-95.5,172.6-213.3,172.6c-11.3,0-22.4-0.7-33.3-2.1
		c-45.8,45.6-98.7,53.8-151.6,55v-11.2C57,401.6,80,376.2,80,347.2c0-4-0.3-8-0.9-11.9C30.8,303.6,0,255.3,0,201.1
		C0,105.7,95.5,28.4,213.3,28.4z M442.7,415.4c0,24.9,16.1,46.6,40.9,58.6v9.6c-45.8-1-87.9-8-127.6-47.2c-9.4,1.2-19,1.8-28.8,1.8
		c-42.4,0-81.5-11.4-112.7-30.7c64.3-0.2,125-20.8,171-58.1c23.2-18.8,41.5-40.8,54.4-65.5c13.7-26.2,20.6-54,20.6-82.8
		c0-4.6-0.2-9.3-0.6-13.9c32.3,26.6,52.1,62.9,52.1,103c0,46.4-26.7,87.9-68.6,115C442.9,408.5,442.7,411.9,442.7,415.4z"/>
</g>
</svg>
